<?xml version="1.0" encoding="UTF-8"?>
<svg xmlns="http://www.w3.org/2000/svg" version="1.1" viewBox="0 0 800 800">
  <defs>
    <style>
      .cls-1 {
        fill: #fcf618;
        fill-rule: evenodd;
      }
    </style>
  </defs>
  <!-- Generator: Adobe Illustrator 28.7.2, SVG Export Plug-In . SVG Version: 1.2.0 Build 154)  -->
  <g>
    <g id="Layer_1">
      <g id="SVGRepo_iconCarrier">
        <path class="cls-1" d="M760,160c0,22.1-17.9,40-40,40H80c-22.1,0-40-17.9-40-40s17.9-40,40-40h640c22.1,0,40,17.9,40,40ZM760,400c0,22.1-17.9,40-40,40H80c-22.1,0-40-17.9-40-40s17.9-40,40-40h640c22.1,0,40,17.9,40,40ZM720,680c22.1,0,40-17.9,40-40s-17.9-40-40-40H80c-22.1,0-40,17.9-40,40s17.9,40,40,40h640Z"/>
      </g>
    </g>
  </g>
</svg>